Jump_normalized_Motion_pl09
version=1
nRows=10
nColumns=43
inDegrees=yes
endheader
time		pelvis_tilt		pelvis_list		pelvis_rotation		pelvis_tx		pelvis_ty		pelvis_tz		hip_flexion_r		hip_adduction_r		hip_rotation_r		knee_angle_r		ankle_angle_r		subtalar_angle_r		mtp_angle_r		hip_flexion_l		hip_adduction_l		hip_rotation_l		knee_angle_l		ankle_angle_l		subtalar_angle_l		mtp_angle_l		lumbar_extension		lumbar_bending		lumbar_rotation		neck_flexion		neck_lateral_bending		neck_rotation		arm_flex_r		arm_add_r		arm_rot_r		elbow_flex_r		pro_sup_r		wrist_flex_r		wrist_dev_r		hand_finger_flex_r		arm_flex_l		arm_add_l		arm_rot_l		elbow_flex_l		pro_sup_l		wrist_flex_l		wrist_dev_l		hand_finger_flex_l		
0.540000		-2.016268		-6.166982		92.695727		-0.016483		1.737395		1.901035		77.943046		-8.762158		10.341097		-140.259397		28.894819		-4.900248		3.392913		77.506393		1.423255		2.329457		-138.392921		31.695410		-10.926470		0.079272		-58.131439		0.690234		-1.236536		33.645463		-0.067926		-3.575455		75.066416		-26.107521		28.584861		61.650940		67.483012		-43.587915		9.728774		35.797642		77.057516		-16.237496		18.315914		68.948236		119.220219		-11.373699		18.074839		76.541874		
0.543359		-2.010755		-6.366313		92.715978		-0.016470		1.737110		1.899827		78.023931		-8.798853		10.358825		-140.298104		28.891876		-4.823620		3.357865		77.587726		1.413065		2.343778		-138.433216		31.713149		-10.928922		0.073907		-58.009302		0.695498		-1.264668		33.858615		-0.096918		-3.591707		76.280438		-25.814981		28.938561		61.896857		67.243350		-43.547558		9.652365		35.768757		78.235330		-15.882078		18.585977		68.896652		119.157182		-11.427507		18.051035		76.572948		
0.546717		-2.002693		-6.539450		92.740213		-0.016515		1.736904		1.898634		78.080386		-8.829880		10.385627		-140.342205		28.869414		-4.717154		3.308927		77.644452		1.425657		2.352164		-138.481203		31.715579		-10.926854		0.066155		-57.915809		0.704376		-1.266782		34.066144		-0.109247		-3.623137		77.619809		-25.651859		29.564192		62.103552		66.873074		-43.486076		9.584144		35.738681		79.494269		-15.575182		19.052562		68.823626		119.042768		-11.457057		18.034402		76.643109		
0.550076		-1.976029		-6.671340		92.764919		-0.016564		1.736793		1.897441		78.096814		-8.829559		10.395947		-140.381454		28.803870		-4.617159		3.260534		77.656452		1.442197		2.380459		-138.526658		31.686276		-10.925983		0.060403		-57.863297		0.724793		-1.261811		34.184603		-0.096175		-3.667715		79.070313		-25.586033		30.461087		62.304094		66.379798		-43.380742		9.448124		35.729373		80.801970		-15.351892		19.663662		68.773455		118.810721		-11.464777		18.021863		76.737276		
0.553434		-1.952559		-6.878213		92.795190		-0.016539		1.736731		1.896194		78.165132		-8.821298		10.389659		-140.386587		28.752045		-4.571039		3.244321		77.731425		1.463629		2.426215		-138.531117		31.680789		-10.927476		0.061252		-57.741228		0.746115		-1.284113		34.382093		-0.110362		-3.680600		80.344219		-25.270850		30.825337		62.461497		66.159614		-43.291757		9.304494		35.724025		81.990649		-14.995028		19.928613		68.730296		118.671081		-11.518470		17.987952		76.733080		
0.556793		-1.917555		-7.062760		92.832051		-0.016532		1.736714		1.894909		78.205036		-8.824802		10.369293		-140.397580		28.678205		-4.517871		3.225288		77.774363		1.499548		2.491727		-138.547231		31.664815		-10.929879		0.061533		-57.636556		0.769604		-1.308054		34.546648		-0.110395		-3.699224		81.695372		-25.019468		31.374065		62.588704		65.865696		-43.161009		9.145691		35.726642		83.229062		-14.685756		20.302613		68.668879		118.458474		-11.582689		17.952223		76.731336		
0.560152		-1.868829		-7.195569		92.903535		-0.016610		1.736832		1.893616		78.169508		-8.876351		10.320149		-140.407448		28.574401		-4.441433		3.208401		77.761909		1.573320		2.582834		-138.581425		31.641624		-10.929995		0.063551		-57.582634		0.839506		-1.328316		34.672330		-0.086786		-3.710995		83.192607		-24.836627		32.182933		62.628488		65.477677		-42.926132		8.971702		35.738362		84.548800		-14.446419		20.838807		68.568483		118.088487		-11.722094		17.891792		76.681440		
0.563510		-1.840776		-7.402997		92.952992		-0.016585		1.736972		1.892206		78.184467		-8.906101		10.289197		-140.379082		28.549009		-4.374082		3.203616		77.783240		1.618266		2.645476		-138.551219		31.656725		-10.933546		0.070409		-57.461063		0.875911		-1.378366		34.845770		-0.094263		-3.708959		84.464182		-24.438799		32.454697		62.737758		65.301178		-42.788530		8.852168		35.725714		85.737175		-14.087904		21.000257		68.497433		117.892797		-11.870331		17.831708		76.594326		
0.566869		-1.808717		-7.589319		93.010637		-0.016585		1.737180		1.890785		78.158850		-8.966851		10.250535		-140.343859		28.520084		-4.285960		3.195373		77.781488		1.662598		2.713899		-138.539085		31.669925		-10.938155		0.079755		-57.358848		0.917683		-1.430613		35.021241		-0.090565		-3.706074		85.810959		-24.071667		32.855696		62.799477		65.078431		-42.601739		8.741528		35.712922		86.978006		-13.758999		21.248991		68.397855		117.640325		-12.041370		17.764322		76.487725		
0.570227		-1.794180		-7.830763		93.045647		-0.016546		1.737417		1.889293		78.173677		-9.010790		10.232172		-140.296728		28.514592		-4.208540		3.185950		77.820062		1.676594		2.759325		-138.519230		31.693093		-10.947636		0.091164		-57.206168		0.925745		-1.486040		35.240000		-0.076101		-3.707171		87.073971		-23.631842		33.043964		62.861649		64.986566		-42.446118		8.681872		35.701285		88.185748		-13.371112		21.368747		68.292832		117.526980		-12.152508		17.709588		76.387514		
